<svg xmlns="http://www.w3.org/2000/svg" xmlns:xlink="http://www.w3.org/1999/xlink" viewBox="0,0,256,256" width="50px" height="50px" fill-rule="nonzero"><g fill="#d4af37" fill-rule="nonzero" stroke="none" stroke-width="1" stroke-linecap="butt" stroke-linejoin="miter" stroke-miterlimit="10" stroke-dasharray="" stroke-dashoffset="0" font-family="none" font-weight="none" font-size="none" text-anchor="none" style="mix-blend-mode: normal"><g transform="scale(5.12,5.12)"><path d="M9,7c-0.55226,0.00006 -0.99994,0.44774 -1,1v33c0.00006,0.55226 0.44774,0.99994 1,1h6c0.55226,-0.00006 0.99994,-0.44774 1,-1v-33c-0.00006,-0.55226 -0.44774,-0.99994 -1,-1zM31,7c-7.16786,0 -13,5.83214 -13,13c0,7.16786 5.83214,13 13,13c7.16786,0 13,-5.83214 13,-13c0,-7.16786 -5.83214,-13 -13,-13zM10,9h4v31h-4zM31,9c6.08698,0 11,4.91302 11,11c0,6.08698 -4.91302,11 -11,11c-6.08698,0 -11,-4.91302 -11,-11c0,-6.08698 4.91302,-11 11,-11z"></path></g></g></svg>